<svg id="Final" xmlns="http://www.w3.org/2000/svg" viewBox="0 0 402.45 437.55"><defs><style>.cls-1{fill:#7cafff;}.cls-1,.cls-2,.cls-3,.cls-5,.cls-6{stroke:#000;stroke-miterlimit:10;}.cls-2,.cls-4{fill:#3081ff;}.cls-3{fill:#333;}.cls-5{fill:#ff6049;}.cls-6{fill:#8cb219;}.cls-7{fill:#184080;}.cls-8{fill:#4990ff;}.cls-9{fill:#ffba30;}</style></defs><title>ocm</title><path class="cls-1" d="M122,322.76a72.76,72.76,0,1,0,72.76,72.76V322.76Z" transform="translate(-48.77 -31.23)"/><path class="cls-2" d="M450.72,250A72.74,72.74,0,0,0,378,177.39v-.15H305.21c-33.12-4.18-77.3-45.29-110.42-72.76h0A72.76,72.76,0,1,0,122,177.24h72.76c33.12,4.19,77.3,45.3,110.42,72.76h0c0,.05,0,.09,0,.14v-.07c-33.12,27.47-77.3,68.58-110.42,72.76V323H122v72.76h72.76v-.14c33.12-27.47,77.3-68.58,110.42-72.76v.07H378c1.48,0,2.94-.06,4.39-.14h68.37V250Z" transform="translate(-48.77 -31.23)"/><path class="cls-3" d="M450.72,250A72.74,72.74,0,0,0,378,177.39v-.15H305.21c-33.12-4.18-77.3-45.29-110.42-72.76h0A72.76,72.76,0,1,0,122,177.24h72.76c33.12,4.19,77.3,45.3,110.42,72.76h0c0,.05,0,.09,0,.14v-.07c-33.12,27.47-77.3,68.58-110.42,72.76V323H122v72.76h72.76v-.14c33.12-27.47,77.3-68.58,110.42-72.76v.07H378c1.48,0,2.94-.06,4.39-.14h68.37V250Z" transform="translate(-48.77 -31.23)"/><path class="cls-4" d="M134,383.73V335h60.76a11.85,11.85,0,0,0,3.54-.53c31.73-5.1,68.33-36.09,100.7-63.49,4.58-3.87,8.91-7.55,13.1-11a11.91,11.91,0,0,0,5.08-9.58V250a12,12,0,0,0-4.52-9.39c-4.36-3.62-8.88-7.44-13.67-11.49-33.06-28-70.53-59.72-102.73-63.78a10.8,10.8,0,0,0-1.5-.1H122a60.76,60.76,0,1,1,60.76-60.76,12,12,0,0,0,4.34,9.24c4.42,3.66,9,7.54,13.85,11.65,33.06,28,70.53,59.71,102.73,63.78a12.58,12.58,0,0,0,1.5.09H376.1a11.6,11.6,0,0,0,1.87.15A60.84,60.84,0,0,1,438.72,250c0,.1,0,.2,0,.29v60.45H382.36c-.24,0-.48,0-.71,0-1.39.08-2.59.12-3.68.12h-71.5c-.43,0-.86-.07-1.29-.07a12.08,12.08,0,0,0-1.47.09C271.51,315,234,346.72,201,374.71q-5.56,4.71-10.71,9Z" transform="translate(-48.77 -31.23)"/><circle class="cls-5" cx="73.26" cy="73.26" r="60.52"/><circle class="cls-3" cx="73.26" cy="364.29" r="60.52"/><rect class="cls-5" x="329.2" y="218.77" width="72.76" height="72.76"/><circle class="cls-6" cx="329.2" cy="218.77" r="60.52"/><circle class="cls-7" cx="73.26" cy="73.26" r="45.15"/><circle class="cls-8" cx="329.2" cy="218.77" r="45.15"/><circle class="cls-9" cx="73.26" cy="364.29" r="45.15"/></svg>